<svg viewBox="180 175 660 660" fill="none" xmlns="http://www.w3.org/2000/svg">
  <path d="M805.915 578.22C806.16 586.085 806.205 594.72 805.91 602.58C803.875 656.13 764.56 698.965 713.24 711.025C694.79 715.785 701.355 732.53 699.905 745.44C698.02 762.25 705.47 796.245 692.225 808.505C672.675 826.61 648.015 802.405 632.175 790.815L570.855 746.11C561.41 739.25 545.32 726.905 535.345 721.385C528.9 717.795 521.83 715.475 514.515 714.55C507.58 713.685 499.706 713.905 492.636 713.92L464.201 713.935L376.444 713.965C361.485 713.98 342.593 714.52 327.839 713.775C296.952 712.46 267.895 698.77 247.22 675.785C232.815 660.025 223.136 640.525 219.289 619.525C216.18 602.935 217.118 578.21 217.134 560.63L217.152 479.603L216.86 360.233C216.796 337.027 216.418 312.31 217.379 289.24C218.55 261.143 234.349 232.35 254.989 213.841C270.561 199.877 293.299 188.474 314.012 185.048C331.74 182.116 357.975 183.236 376.75 183.148L426.775 183.189C438.711 183.174 450.794 182.784 462.725 183.428C475.851 182.667 494.806 183.263 508.215 183.277L593.275 183.269L658.05 183.251C674.43 183.238 697.6 182.474 713.18 185.722C733.605 190.019 752.53 199.633 768.05 213.591C790.605 233.631 804.205 261.862 805.815 291.99C806.53 304.941 806.035 321.857 806.03 335.229L806.005 413.88L805.995 521.775C805.99 539.965 806.43 560.215 805.915 578.22Z" fill="url(#paint0_linear_1_70)"/>
  <path d="M805.915 578.22C806.16 586.085 806.205 594.72 805.91 602.58C803.875 656.13 764.56 698.965 713.24 711.025C694.79 715.785 701.355 732.53 699.905 745.44C698.02 762.25 705.47 796.245 692.225 808.505C672.675 826.61 648.015 802.405 632.175 790.815L570.855 746.11C561.41 739.25 545.32 726.905 535.345 721.385C528.9 717.795 521.83 715.475 514.515 714.55C507.58 713.685 499.706 713.905 492.636 713.92L464.201 713.935L376.444 713.965C361.485 713.98 342.593 714.52 327.839 713.775C296.952 712.46 267.895 698.77 247.22 675.785C232.815 660.025 223.136 640.525 219.289 619.525C216.18 602.935 217.118 578.21 217.134 560.63L217.152 479.603L216.86 360.233C216.796 337.027 216.418 312.31 217.379 289.24C218.55 261.143 234.349 232.35 254.989 213.841C270.561 199.877 293.299 188.474 314.012 185.048C331.74 182.116 357.975 183.236 376.75 183.148L426.775 183.189C438.711 183.174 450.794 182.784 462.725 183.428C459.757 184.377 439.524 184.427 436.294 183.723L435.729 184.294C436.106 187.826 437.38 184.281 437.025 187.548C436.423 188.187 435.112 189.152 435.534 190.147C441.912 205.24 448.12 218.309 448.765 235.055C448.803 236.049 453.629 248.717 454.384 251.007C457.37 260.062 458.186 269.644 462.728 278.041C464.447 281.218 465.471 285.046 467.206 288.267C470.747 302.087 479.436 313.198 484.831 325.842C489.585 336.985 491.858 348.73 498.901 359.03C500.805 362.015 501.87 366.709 504.115 369.84L504.565 369.845L505.235 368.487C507.085 372.085 508.47 378.046 510.635 382.58C513.365 388.295 517.64 394.426 519.98 399.78C523.11 406.932 523.15 411.943 529.435 418.185C531.78 421.394 540.065 426.264 540.38 430.087C540.705 434.059 547.45 437.199 547.87 439.426C548.51 442.878 551.29 448.622 549.94 451.876C548.04 456.459 537.565 464.249 536.555 466.887C536.75 466.566 513.145 489.52 512.285 490.305C507.99 487.194 498.389 476.768 493.784 472.53C468.267 449.045 448.718 440.314 415.088 433.691C449.338 414.097 467.634 383.767 461.654 343.74C458.484 321.469 446.54 301.39 428.483 287.974C413.023 276.83 393.775 272.269 374.957 275.29C333.048 281.95 304.405 327.818 310.93 368.56C311.68 376.318 313.531 382.356 316.332 389.569C323.935 409.276 339.768 424.626 358.66 433.631C352.761 434.763 338.074 437.34 332.841 439.798C323.753 442.3 316.704 445.373 308.383 449.809C286.738 460.717 263.434 485.446 255.862 508.765C253.992 514.705 252.678 520.805 251.937 526.985C250.923 534.99 250.126 560.9 252.737 568.345C253.963 575.68 255.636 581.285 258.837 588.065C265.713 602.955 281.886 619.03 297.391 624.67C305.881 628.345 316.866 631.475 326.088 632.26C327.53 632.505 330.744 632.98 332.176 632.865C344.228 633.99 359.808 633.685 372.169 633.64C384.309 633.6 399.497 634.045 411.428 633.355C445.211 632.775 473.569 616.465 494.07 590.25C496.915 586.61 502.77 577.88 506.655 575.95C508.48 575.04 513.175 580.69 514.71 582.31C528.75 597.135 546.1 613.8 564.92 622.14C578.13 628.19 589.495 631.385 604.13 632.725C608.02 634.005 626.145 633.72 631.18 633.67C682.905 633.135 740.725 642.355 766.665 585.345C766.89 585.6 766.965 585.96 767.095 586.275C766.415 587.485 766.09 587.77 766.095 589.14L766.665 589.39C767.865 588.47 767.945 588.305 769.335 587.79C772.51 589.025 776.59 589.365 780.025 590.345C785.485 591.9 788.31 595.91 793.28 598.11C800.12 601.135 802.2 605.255 802.81 612.79L802.855 613.465C803.085 612.67 803.145 612.72 803.59 611.99L804.355 612.345L804.625 612.24C804.59 612.07 804.555 611.9 804.52 611.725C804.79 601.02 804.49 590.245 805.02 579.555C805.32 579.11 805.62 578.665 805.915 578.22Z" fill="url(#paint1_linear_1_70)"/>
  <path d="M462.725 183.428C475.851 182.667 494.806 183.263 508.215 183.276L593.275 183.269L658.05 183.251C674.43 183.238 697.6 182.473 713.18 185.722C733.605 190.019 752.53 199.633 768.05 213.591C790.605 233.63 804.205 261.862 805.815 291.99C806.53 304.941 806.035 321.857 806.03 335.229L806.005 413.88L805.995 521.775C805.99 539.965 806.43 560.215 805.915 578.22C805.62 578.665 805.32 579.11 805.02 579.555C804.49 590.245 804.79 601.02 804.52 611.725C804.555 611.9 804.59 612.07 804.625 612.24L804.355 612.345L803.59 611.99C803.145 612.72 803.085 612.67 802.855 613.465L802.81 612.79C802.2 605.255 800.12 601.135 793.28 598.11C788.31 595.91 785.485 591.9 780.025 590.345C776.59 589.365 772.51 589.025 769.335 587.79C767.945 588.305 767.865 588.47 766.665 589.39L766.095 589.14C766.09 587.77 766.415 587.485 767.095 586.275C766.965 585.96 766.89 585.6 766.665 585.345C768.74 579.25 770.345 573 771.465 566.655C775.865 540.12 771.485 507.355 755.06 485.453C731.515 454.069 702.82 440.146 665.265 434.03C682.98 426.112 699.925 409.318 707.695 391.632C725.725 350.577 707.005 298.548 666.12 280.315C649.65 272.999 630.96 272.479 614.11 278.867C571.225 295.439 552.47 348.262 568.3 390.306C575.11 408.399 592.465 426.034 610.24 433.724C577.91 439.073 562.015 447.361 536.555 466.887C537.565 464.249 548.04 456.459 549.94 451.876C551.29 448.622 548.51 442.877 547.87 439.425C547.45 437.198 540.705 434.059 540.38 430.087C540.065 426.264 531.78 421.394 529.435 418.185C523.15 411.943 523.11 406.932 519.98 399.78C517.64 394.426 513.365 388.295 510.635 382.58C508.47 378.046 507.085 372.085 505.235 368.487L504.565 369.845L504.115 369.84C501.87 366.709 500.805 362.015 498.902 359.03C491.858 348.73 489.585 336.984 484.831 325.842C479.437 313.198 470.747 302.087 467.206 288.267C465.471 285.046 464.447 281.218 462.728 278.041C458.186 269.644 457.37 260.061 454.384 251.006C453.629 248.717 448.803 236.049 448.765 235.055C448.12 218.309 441.912 205.239 435.534 190.146C435.112 189.152 436.423 188.186 437.025 187.547C437.38 184.28 436.106 187.826 435.729 184.293L436.294 183.722C439.524 184.427 459.757 184.377 462.725 183.428Z" fill="url(#paint2_linear_1_70)"/>
  <path d="M626.755 475.701C628.24 475.477 632.655 475.332 634.235 475.319C661.355 475.093 691.44 481.568 711.485 500.9C724.67 513.525 730.69 528.095 731.065 546.185C731.475 565.88 722.7 583.5 702.63 588.975C692.535 591.73 680.605 590.995 670.05 590.99L639.25 590.955C621.13 591 599.18 592.495 582.66 585.24C577.01 582.705 571.745 579.385 567.02 575.375C558.05 567.845 538 544.79 533.62 533.64C535.05 530.38 537.535 526.935 539.905 524.28C566.18 494.826 587.23 479.181 626.755 475.701Z" fill="url(#paint3_linear_1_70)"/>
  <path d="M375.777 475.706C388.466 473.867 412.744 477.061 424.568 480.724C444.437 486.88 470.165 507.385 480.987 525.245C478.018 534.805 459.743 563.325 452.376 570.835C435.222 588.31 422.479 590.33 399.571 590.945L359.509 590.98C347.983 590.99 335.896 591.535 324.625 589.31C285.557 581.6 284.673 531.725 307.362 506.51C325.984 485.815 348.747 478.166 375.777 475.706Z" fill="#CC46D9"/>
  <path d="M384.805 321.693C426.243 317.62 435.127 389.59 389.183 395.685C343.983 397.635 340.081 326.507 384.805 321.693Z" fill="#CC46D9"/>
  <path d="M632.17 322.104C649.87 320.555 664.395 328.519 669.065 345.984C674.905 367.827 666.565 389.102 644.155 395.349C610.02 399.695 597.435 361.941 611.94 335.977C616.3 328.179 623.64 324.069 632.17 322.104Z" fill="#F96B8A"/>
  <defs>
    <linearGradient id="paint0_linear_1_70" x1="706.86" y1="318.682" x2="304.47" y2="646.255" gradientUnits="userSpaceOnUse"><stop offset="1" stop-color="white"/></linearGradient>
    <linearGradient id="paint1_linear_1_70" x1="634.58" y1="387.327" x2="251.451" y2="680.505" gradientUnits="userSpaceOnUse"><stop stop-color="#EC51B4"/><stop offset="1" stop-color="#B340F7"/></linearGradient>
    <linearGradient id="paint2_linear_1_70" x1="801.515" y1="254.709" x2="544.34" y2="457.8" gradientUnits="userSpaceOnUse"><stop stop-color="#FF8C6D"/><stop offset="1" stop-color="#EA4BB4"/></linearGradient>
    <linearGradient id="paint3_linear_1_70" x1="696.16" y1="486.442" x2="585.095" y2="593.525" gradientUnits="userSpaceOnUse"><stop stop-color="#F55F9E"/><stop offset="1" stop-color="#DD4AC6"/></linearGradient>
  </defs>
</svg>
