<svg viewBox="250 140 520 540" fill="none" xmlns="http://www.w3.org/2000/svg">
	<path d="M760.01 477.698C760.015 477.86 760.02 478.022 760.025 478.185C757.81 515.27 734.745 550.25 700.615 565.415C690.465 569.925 675.095 572.915 671.015 583.455C664.22 601.02 672.06 630.905 667.68 648.145C666.85 651.535 665.135 654.65 662.705 657.16C645.49 674.725 619.015 648.51 604.22 637.745C587.39 625.48 570.495 613.305 553.545 601.215C544.43 594.68 535.48 587.9 526.03 581.91C513.6 574.04 499.965 574.585 485.84 574.72C478.037 574.795 470.165 574.74 462.346 574.73L365.498 574.81C316.395 574.54 276.472 543.42 265.171 495.032C261.411 478.933 262.158 461.343 262.154 444.856L262.163 398.271C262.179 352.72 262.126 307.131 262.191 261.577C262.236 230.107 272.021 202.328 295.119 180.119C309.078 166.795 326.476 157.627 345.358 153.645C359.773 150.571 375.484 151.239 390.262 151.278L434.861 151.379C479.054 151.452 524.655 150.858 568.66 151.585C586.905 151.187 605.25 151.553 623.51 151.517C653.155 151.459 678.53 149.255 705.83 163.698C740.97 182.287 760.415 217.196 760.485 256.71C760.575 305.709 760.505 354.724 760.505 403.731L760.53 450.967C760.54 458.179 760.905 471.12 760.01 477.698ZM651.625 312.893C660.78 298.973 676.595 284.689 677.79 268.222C678.315 260.932 676.315 252.886 671.2 247.426C654.775 229.9 631.165 236.786 615.515 250.759C606.01 260.295 590.045 282.5 581.13 294.291L518.145 377.64C508.6 390.251 499.253 402.985 489.57 415.509C484.834 421.634 481.458 421.471 476.161 415.682C471.402 410.482 467.003 404.613 462.567 399.109C455.524 390.342 448.349 381.683 441.044 373.133C427.498 357.133 415.358 340.998 392.691 339.824C371.881 338.746 353.553 353.919 358.77 376.023C361.016 385.537 370.315 395.292 376.507 402.728C383.835 411.488 391.108 420.295 398.326 429.147L427.95 465.77C432.823 471.819 439.812 481.068 444.903 486.269C454.725 496.286 468.148 501.95 482.177 502.005C509.205 502.21 520.74 487.608 535.435 467.995L556.515 439.826L629.79 341.935C632.085 338.86 650.015 314.056 651.625 312.893Z" fill="url(#paint0_linear_1_55)"/>
	<path d="M568.66 151.585C586.905 151.187 605.25 151.553 623.51 151.517C653.155 151.459 678.53 149.255 705.83 163.698C740.97 182.287 760.415 217.196 760.485 256.71C760.575 305.709 760.505 354.724 760.505 403.731L760.53 450.967C760.54 458.179 760.905 471.12 760.01 477.698C756.965 475.503 758.45 474.054 757.595 470.889C756.365 466.359 754.515 461.793 752.15 457.737C750.585 455.056 746.93 454.807 744.14 454.292C742.04 452.45 739.71 450.505 738.03 448.256C736.255 445.882 734.905 443.246 732.915 441.03C729.195 436.889 725.015 433.135 721.185 429.089C716.405 424.035 706.725 412.462 702.975 406.546C700.63 402.848 699.56 398.482 697.62 394.588C696.38 392.102 693.62 390.551 692.165 388.159C690.195 384.93 689.465 380.916 687.325 377.781C685.21 374.682 683.545 371.285 681.535 368.114C679.15 364.354 676.435 360.793 674.21 356.931C670.41 350.333 655.52 318.892 657.305 312.574C657.67 311.278 657.74 310.417 657.685 309.071L656.72 308.359L655.67 308.732C654.225 311.013 654.045 311.73 651.625 312.893C660.78 298.973 676.595 284.689 677.79 268.222C678.315 260.932 676.315 252.886 671.2 247.426C654.775 229.9 631.165 236.786 615.515 250.759C614.01 244.948 619.945 247.484 620.535 240.313C613.99 240.387 615.055 240.203 612.73 234.573L612.275 235.455C610.19 233.638 611.185 222.661 610.29 219.73C608.34 213.351 605.18 207.522 602.81 201.101C601.77 199.254 599.875 188.082 598.725 187.251C594.08 183.889 595.18 176.22 591.4 172.308C588.735 169.554 589.97 167.59 588.62 164.828C587.64 162.829 583.64 161.348 582.68 158.712C583.35 157.192 583.9 156.466 583.47 154.896L582.22 155.532C579.765 152.364 573.175 152.17 569.505 152.165L568.66 151.585Z" fill="url(#paint1_linear_1_55)"/>
	<defs>
		<linearGradient id="paint0_linear_1_55" x1="672.275" y1="290.331" x2="289.244" y2="542.085" gradientUnits="userSpaceOnUse">
			<stop stop-color="#ED5E8B"/>
			<stop offset="1" stop-color="#A32FD8"/>
		</linearGradient>
		<linearGradient id="paint1_linear_1_55" x1="774.71" y1="267.686" x2="650.655" y2="322.494" gradientUnits="userSpaceOnUse">
			<stop stop-color="#FE7866"/>
			<stop offset="1" stop-color="#EC6084"/>
		</linearGradient>
	</defs>
</svg>